<svg width="64" height="64" viewBox="0 0 64 64" fill="none" xmlns="http://www.w3.org/2000/svg">
  <rect width="64" height="64" rx="12" fill="black"/>
  <g transform="translate(12 15.577)">
    <path d="M0.356027 2.72837L7.53061 11.955L9.15358 16.0944C10.7632 20.2 15.0472 22.5984 19.3887 21.8246L26.383 20.5779L36.8991 21.4332C37.6948 21.4979 38.3762 20.8697 38.3762 20.0715C38.3762 19.221 37.6075 18.5771 36.7702 18.7264L26.383 20.5779L17.6759 19.8697C14.9613 19.6489 12.4638 18.2991 10.7919 16.149L7.53061 11.955L3.26445 1.07357C2.74136 -0.260624 0.89962 -0.379628 0.209134 0.876144C-0.115998 1.46753 -0.0582537 2.19562 0.356027 2.72837Z" fill="white"/>
    <path d="M1.47507 29.5525L7.58832 26.1862L9.44227 23.3221C11.0466 20.8437 13.8941 19.4607 16.834 19.732L25.6534 20.5459L37.8714 18.1585C38.9745 17.943 40.0001 18.7876 40.0001 19.9115C40.0001 20.9628 39.0966 21.7867 38.0498 21.6901L25.6534 20.5459L15.0206 22.6237C14.0318 22.8169 13.0791 23.1626 12.1967 23.6486L7.58832 26.1862L3.79604 32.0447C3.07254 33.1624 1.41691 33.0997 0.780051 31.9304C0.31774 31.0815 0.628391 30.0187 1.47507 29.5525Z" fill="white"/>
  </g>
</svg>
