<svg width="144" height="42" viewBox="0 0 144 42" fill="none" xmlns="http://www.w3.org/2000/svg">
<path d="M0.433565 4.32257L9.17068 15.5586L11.1471 20.5996C13.1073 25.5993 18.3243 28.5201 23.6113 27.5777L32.1289 26.0595L44.9353 27.1011C45.9042 27.1799 46.734 26.4148 46.734 25.4428C46.734 24.4071 45.7979 23.623 44.7783 23.8048L32.1289 26.0595L21.5255 25.1971C18.2196 24.9282 15.1783 23.2844 13.1423 20.6661L9.17068 15.5586L3.97541 2.30738C3.33839 0.682616 1.09555 0.537694 0.25468 2.06696C-0.14126 2.78714 -0.0709406 3.6738 0.433565 4.32257Z" fill="black"/>
<path d="M1.79632 36.9886L9.24096 32.8892L11.4987 29.4014C13.4524 26.3832 16.9201 24.699 20.5002 25.0294L31.2404 26.0206L46.1193 23.1132C47.4626 22.8507 48.7116 23.8793 48.7116 25.2479C48.7116 26.5282 47.6114 27.5316 46.3365 27.4139L31.2404 26.0206L18.2919 28.5508C17.0878 28.7861 15.9276 29.2071 14.8529 29.7989L9.24096 32.8892L4.62277 40.0237C3.7417 41.3848 1.72549 41.3084 0.949936 39.8845C0.38694 38.8507 0.765247 37.5564 1.79632 36.9886Z" fill="black"/>
<path d="M92.4165 11.54L86.6485 31H83.0365L78.9485 16.272L74.6085 31L71.0245 31.028L65.5085 11.54H68.8965L72.9285 27.388L77.2965 11.54H80.8805L84.9405 27.304L89.0005 11.54H92.4165ZM112.829 11.54V31H109.637V22.488H100.481V31H97.2892V11.54H100.481V19.884H109.637V11.54H112.829ZM122.463 11.54V31H119.271V11.54H122.463ZM142.502 17.336C142.502 18.3253 142.269 19.2587 141.802 20.136C141.336 21.0133 140.589 21.732 139.562 22.292C138.536 22.8333 137.22 23.104 135.614 23.104H132.086V31H128.894V11.54H135.614C137.108 11.54 138.368 11.8013 139.394 12.324C140.44 12.828 141.214 13.5187 141.718 14.396C142.241 15.2733 142.502 16.2533 142.502 17.336ZM135.614 20.5C136.828 20.5 137.733 20.2293 138.33 19.688C138.928 19.128 139.226 18.344 139.226 17.336C139.226 15.208 138.022 14.144 135.614 14.144H132.086V20.5H135.614Z" fill="black"/>
</svg>
